<svg enable-background="new 0 0 140 140" height="512" viewBox="0 0 140 140" width="512" xmlns="http://www.w3.org/2000/svg"><circle cx="70" cy="70" fill="#ffd25a" r="64"/><path d="m32.7199707 90.8399658 7.2700195-3.7099609-.0100098-.0100098h.0200196l.0400391.0299072v-5.5c-3.5400391-4.5-6.5600586-9.5-6.8400879-13.7099609l-1.5300293-1.5300293c-.119873-.0998535-.2299805-.2099609-.329834-.3299561l-.0300293-.0299072v-.0100098c-1.130127-1.3000488-1.9001465-3.75-1.9001465-6.5700684 0-1.1899414.1401367-2.4199219.380127-3.5700684-.6900635-3.25-.9699707-11.7299805-.9699707-11.7299805s-.7600098-13.3498535 18.6699219-18.0599365c11.6799316-2.8299561 17.3800049.5999756 20.0600586 3.7800293l34.7299805 34.7199707h1.8699951c.9799805 0 1.8399658.4400635 2.4400635 1.1300049l.0098877-.0100098 4.710083 4.7099609h6.4099121c1.5100098 0 2.8500977.7600098 3.6400146 1.9200439l11.1900635 11.1900635c-6.2199708 28.839966-31.8500977 50.4499514-62.5500489 50.4499514-15.5500488 0-29.8000488-5.5500488-40.8900146-14.7700195l-3.3499756-3.3399658c-5.6300049-5.3800049-10.2800293-11.7700196-13.6500244-18.8900147 9.0499267-3.6099854 20.6099853-6.1600342 20.6099853-6.1600342z" opacity=".1"/><path d="m37.600029 92.1786804c1.1156158 6.9379501 7.1272545 12.2606125 14.3749084 12.2606125 7.2477417 0 13.2594681-5.3226624 14.3749924-12.260788-2.5587425-1.7806091-2.4434929-4.2293396-2.4434929-4.2293396v-7.5836945h-23.8628273v7.5836945s.1153336 2.4488144-2.4435806 4.2295151z" fill="#b0b1b5"/><path d="m70.78022 50.5883827c-.004097 0-.0080414 1.3008232-.0119781 1.3008232-.2539597-10.3431396-8.6087761-20.0247822-18.7931671-20.0247822s-18.5393639 9.6816425-18.7931633 20.0247822c-.0039444 0-.007885-1.3008232-.011982-1.3008232-2.0764465 0-3.7595787 4.6919937-3.7595787 8.8773613s1.6831322 7.5777969 3.7595787 7.5777969v.270546c0 5.1699905 4.5037994 11.7114639 9.1031342 17.0435104 5.1282158 5.9452667 14.2756462 5.9452667 19.4038658 0 4.5994911-5.3320465 9.1032906-11.8735199 9.1032906-17.0435104v-.270546c2.0762863 0 3.7595749-3.3924294 3.7595749-7.5777969s-1.6832887-8.8773613-3.759575-8.8773613z" fill="#ececec"/><path d="m56.6930428 94.1547775 10.2405891 5.0345001-10.6382446 31.1911393-3.1288948-7.1616898-.278122-25.1702194z" fill="#e6e7e8"/><path d="m106.6800537 122.1086578c-5.4700317 3.8299561-11.5599976 6.8299561-18.1000366 8.8099365-1.7199707.5300293-3.4699707.9799805-5.25 1.3500977-3.1799927.6799316-6.4500122 1.119873-9.789978 1.2999268-1.1699829.0699463-2.3500366.0999756-3.5400391.0999756-1.1899414 0-2.3699951-.0300293-3.539978-.0999756-1.6499634-.0899658-3.289978-.2399902-4.8999634-.4499512-1.3700562-.1900635-2.7300415-.4100342-4.0600586-.6800537l3.2800293-11.1099854 2.7600098-12.1900635.0100098-.0499268.0100098-.0200195 2.3599854-10.3800049.6099854-2.6398926 4.6699829-5.210083h.0100098v.0100098c.6099854.1300049 25.3099976 5.6300049 30.3200073 11.9200439 3.4400022 4.3199464 4.6300047 11.419922 5.1500242 19.3399659z" fill="#4388b9"/><path d="m63.9408913 87.1160126-11.9783364 6.2378921 9.3434906 5.8353729z" fill="#dad7dc"/><path d="m51.0400391 98.0487213-.2800293 25.1699219-1.9299927 4.4199219-.9199829 2.1000977c-.1300049-.0400391-.25-.0900879-.3800049-.1400146-.0599976-.0200195-.1300049-.0400391-.1900024-.0699463l-7.0100098-20.5600586-.0100098-.0300293-3.3299561-9.75 1.0099487-.5 4.0800171-2 5.1500244-2.5300293 1.3099976 1.3400879z" fill="#e6e7e8"/><path d="m45.3600464 128.7486725c-2.4299927-1.0200195-4.7900391-2.1800537-7.0599976-3.4799805-11.3699951-6.4899902-20.5599976-16.380127-26.1900024-28.2700195 9.0499878-3.6101074 20.6099854-6.1600342 20.6099854-6.1600342l4.6699829 5.210083.6099853 2.6398926 2.3200073 10.25.0100098.0300293 2.8099976 12.3599854z" fill="#4388b9"/><path d="m39.9842224 87.1160126 11.9783325 6.2378921-9.3434868 5.8353729z" fill="#dad7dc"/><path d="m56.6100464 132.2586823c-.8099976-.170044-1.6100464-.3601075-2.4000244-.5500489-.9400024-.2399902-1.8800049-.5100098-2.7999878-.7900391-.6799927-.1999512-1.3499756-.4199219-2.0100098-.6499023-.5-.1700439-1-.3400879-1.4899902-.5300293-.1300049-.0400391-.25-.0900879-.3800049-.1400146l.460022-5.8399658 1.8299561-23.3701172-2.2299805-4.2999268.9500122-.5899658 3.4199829-2.1300049 3.4199829 2.1300049.9500122.5899658-2.2199707 4.2999268 1.8299561 23.3500977v.0200195l.4900513 6.2299805v.0100098z" fill="#f37735"/><path d="m49.4000244 130.268692c-.5-.1700439-1-.3400879-1.4899902-.5300293-.1300049-.0400391-.25-.0900879-.3800049-.1400146-.0599976-.0200195-.1300049-.0400391-.1900024-.0699463-.6699829-.25-1.3300171-.5100098-1.9799805-.7800293-2.4299927-1.0200195-4.7900391-2.1800537-7.0599976-3.4799805l-7.4200439-14.3400879 5.3699951-3.1398926-6.1399536-3.380127 2.6099854-13.5699463 7.2799682-3.7199706 2.0800171 9.5699463 5.9100342 27.0700684.8399658 3.8798828z" fill="#509fd7"/><path d="m67.6800537 107.7887115 5.3699951 3.1398926-11.4899902 22.1900635c-1.3700562-.1900635-2.7300415-.4100342-4.0600586-.6800537-.2799683-.0500488-.5599976-.1099854-.8299561-.1699219-.0200195 0-.0400391-.0100098-.0599976-.0100098-.8099975-.1700439-1.6100463-.3601074-2.4000243-.5500488l.8900146-4.0800781.8399658-3.869873v-.0200195l5.9000244-27.0500488 2.0800171-9.5699463 7.2799683 3.7199707h.0100098v.0100098l2.6000366 13.5599365z" fill="#509fd7"/><path d="m60.910759 54.1176949c-3.1908913.2472954-5.4294472.9148979-5.4294472.9148979s-2.2223244.4701309-3.5000839.4701309c-1.2776871 0-3.5000877-.4701309-3.5000877-.4701309s-2.2385559-.6676025-5.4293709-.9148979c-3.2032738-.235218-11.5019665 1.1996307-11.5019665 1.1996307l.3833961 1.6694641c3.1042347.0495186 3.1537533 1.6697617 3.1537533 1.6697617 0 1.7313614.2596741 3.0547905.6060066 4.0442696.6060066 1.8056412 2.0777664 3.141449 3.908165 3.6236572 3.3516808.8656769 6.5920181-.6679077 6.5920181-.6679077 3.2403374-1.6199417 4.3905258-5.9613228 4.3905258-5.9613228.0051346-.0147972.0101891-.0295906.0153999-.0440865.4474831-1.2693825 2.3169861-1.2693825 2.7643929 0 .0051346.0144958.0102654.0292892.0153236.0440865 0 0 1.1501884 4.3413811 4.3905258 5.9613228 0 0 3.2734756 1.5492859 6.6307449.6543198 1.7364883-.4625778 3.4844589-2.2706375 3.9908218-3.9950523.2760544-.9399567.4846954-2.1432152.4846954-3.6592865 0 0 .0494461-1.6202431 3.1537552-1.6697617l.3710175-1.6694641c.0000001-.0000001-8.2863844-1.4348489-11.4895857-1.1996308z" fill="#19282f"/><path d="m36.8957291 57.3167877s.2383995-1.4780807 2.3363228-1.85952c2.0979195-.3814392 4.1481628-.3814392 4.1481628-.3814392s5.4355202.1430397 5.7692833 2.8607979c0 0 .0013008.6749649-.1622086 1.6195908-.5942574 3.4331551-3.5200386 6.1126976-7.0040245 6.1521034-.3579102.0040436-.7277603-.0180817-1.1063499-.0734634-1.8485641-.270401-3.4005737-1.5157547-3.9277573-3.3080635-.3465347-1.178154-.5102539-2.8251763-.0534286-5.010006z" fill="#509fd7"/><path d="m67.0654373 57.3167877s-.2383957-1.4780807-2.336319-1.85952c-2.0979195-.3814392-4.1481628-.3814392-4.1481628-.3814392s-5.4355202.1430397-5.7692795 2.8607979c0 0-.0013046.6749649.1622047 1.6195908.5942574 3.4331551 3.5200386 6.1126976 7.0040245 6.1521034.3579102.0040436.7277641-.0180817 1.1063499-.0734634 1.8485603-.270401 3.4005775-1.5157547 3.9277611-3.3080635.3465348-1.178154.510254-2.8251763.0534211-5.010006z" fill="#509fd7"/><path d="m29.8829575 56.3152618c.7092266 2.6950264 2.1960945 4.7613869 2.390152 9.3518906h1.2076874c-.3277359-1.9660988-.8036537-6.8977394.8036537-14.3604584 0 0 11.1500893-10.0616302 3.9462242.455265 0 0 18.4073753-14.1870117 5.6156425-.455265 0 0 23.6940575-16.006813 7.8924522-.7588844 0 0 6.2129517.8379326 13.3562851-9.4102173 0 0 3.946228-.4552689 4.4016495 6.3746834.4552689 6.8299522.9899902 18.1548767.9899902 18.1548767h.8585129c.4424973-2.3103867 1.6481323-8.050724 2.8564529-8.8966255 0 0 3.9462204-19.1237373-4.4014969-22.7665024 0 0-2.8837204-12.5974026-22.3110771-7.8921375-19.4275112 4.7049522-18.6686287 18.0612392-18.6686287 18.0612392s.3036175 9.2585678 1.0625001 12.1421356z" fill="#344e5c"/><path d="m106.5287704 72.7559891h-16.6208343c-.4806519 0-.8706055-.3899612-.8706055-.8706055v-4.0288162c0-1.7899551 1.4566727-3.2466278 3.2466278-3.2466278h11.8687897c1.7899475 0 3.2466278 1.4566727 3.2466278 3.2466278v4.0288162c0 .4806442-.3899612.8706055-.8706055.8706055zm-15.7502288-1.741211h14.8796234v-3.1582108c0-.8297958-.6750565-1.5054169-1.5054169-1.5054169h-11.8687897c-.8303604 0-1.5054169.675621-1.5054169 1.5054169v3.1582108z" fill="#b0b1b5"/><path d="m76.2589188 87.6548462v11.6031799c0 3.7914124 3.0735855 6.8650665 6.8650665 6.8650665h30.18853c3.791481 0 6.8650665-3.0736542 6.8650665-6.8650665v-11.6031799z" fill="#344e5c"/><path d="m117.7163925 70.4350204h-38.8916626c-2.4779968 0-4.4722443 2.0298843-4.4225006 4.5072784.0906448 4.5192871.168129 12.9861832-.1054993 12.7125473 15.0284882 7.6574783 32.814621 7.6574783 47.8431091 0v-12.796379c.0000001-2.4429703-1.9804839-4.4234467-4.4234466-4.4234467z" fill="#293b44"/><path d="m99.4742813 92.5083847h-2.5119324c-.4863205 0-.8805237.3940887-.8805237.8804626v3.0350494c0 .4863663.3942032.8805771.8805237.8805771h2.5119324c.4862595 0 .8804626-.3942108.8804626-.8805771v-3.0350494c.0000001-.4863739-.3942031-.8804626-.8804626-.8804626z" fill="#e6e7e8"/><circle cx="98.218" cy="94.906" fill="#f37735" r=".895"/></svg>