<svg height="512pt" viewBox="0 0 512.00002 512" width="512pt" xmlns="http://www.w3.org/2000/svg"><path d="m512 256c0 62.371094-22.308594 119.535156-59.382812 163.945312-18.460938 22.109376-40.582032 41.074219-65.429688 55.933594-9.277344 5.546875-18.945312 10.519532-28.945312 14.890625-2.570313 1.117188-5.171876 2.191407-7.792969 3.238281-1.347657.53125-2.695313 1.054688-4.054688 1.566407-4.640625 1.753906-9.351562 3.375-14.117187 4.859375-4.429688 1.390625-8.921875 2.652344-13.457032 3.792968-2.121093.542969-4.253906 1.042969-6.394531 1.523438-1.214843.273438-2.445312.542969-3.667969.796875-.367187.070313-.730468.15625-1.109374.230469-4.617188.960937-9.296876 1.773437-14.023438 2.472656-4.824219.710938-9.714844 1.289062-14.636719 1.726562-7.574219.679688-15.246093 1.023438-22.988281 1.023438-17.429688 0-34.449219-1.746094-50.90625-5.066406-117-23.59375-205.09375-126.976563-205.09375-250.933594 0-141.386719 114.613281-256 256-256s256 114.613281 256 256zm0 0" fill="#3fb777"/><path d="m512 159.859375c0 82.398437-66.792969 149.191406-149.191406 149.191406-82.394532 0-149.1875-66.792969-149.1875-149.191406 0-82.394531 66.792968-149.1875 149.1875-149.1875 82.398437 0 149.191406 66.792969 149.191406 149.1875zm0 0" fill="#f74f4f"/><path d="m478.542969 159.859375c0 63.917969-51.816407 115.734375-115.734375 115.734375-63.914063 0-115.730469-51.816406-115.730469-115.734375 0-63.914063 51.816406-115.730469 115.730469-115.730469 63.917968 0 115.734375 51.816406 115.734375 115.730469zm0 0" fill="#f2f0ec"/><path d="m444.644531 159.859375c0 45.199219-36.636719 81.835937-81.835937 81.835937-45.195313 0-81.832032-36.636718-81.832032-81.835937 0-45.195313 36.636719-81.832031 81.832032-81.832031 45.199218 0 81.835937 36.636718 81.835937 81.832031zm0 0" fill="#f74f4f"/><path d="m404.574219 159.859375c0 23.066406-18.699219 41.765625-41.765625 41.765625-23.0625 0-41.761719-18.699219-41.761719-41.765625 0-23.0625 18.699219-41.761719 41.761719-41.761719 23.066406 0 41.765625 18.699219 41.765625 41.761719zm0 0" fill="#f2f0ec"/><path d="m378.554688 159.859375c0 8.695313-7.046876 15.746094-15.746094 15.746094-8.695313 0-15.742188-7.050781-15.742188-15.746094s7.046875-15.742187 15.742188-15.742187c8.699218 0 15.746094 7.046874 15.746094 15.742187zm0 0" fill="#f74f4f"/><path d="m306.90625 449.578125v57.355469c-16.457031 3.320312-33.476562 5.066406-50.90625 5.066406-79.015625 0-149.660156-35.796875-196.617188-92.054688 9.925782-30.34375 34.710938-53.960937 65.765626-62.265624 1.484374-.398438 2.976562-.761719 4.492187-1.085938 4.03125-.878906 8.171875-1.484375 12.382813-1.828125 2.570312-.210937 5.160156-.316406 7.785156-.316406h61.949218c6.929688 0 13.679688.734375 20.179688 2.144531.375.070312.75.15625 1.117188.238281 1.097656.25 2.195312.523438 3.269531.816407.03125.007812.050781.007812.082031.019531 10.710938 2.863281 20.679688 7.554687 29.542969 13.710937 24.75 17.175782 40.957031 45.796875 40.957031 78.199219zm0 0" fill="#3d4159"/><path d="m236.636719 356.59375-.230469 1.074219-32.054688 149.109375c-.378906-.074219-.742187-.160156-1.109374-.230469-3.382813-.703125-6.738282-1.472656-10.0625-2.320313-9.414063-2.371093-18.617188-5.265624-27.574219-8.652343-1.359375-.511719-2.707031-1.035157-4.054688-1.566407-2.621093-1.046874-5.222656-2.121093-7.792969-3.238281l-28.609374-133.089843-.230469-1.085938zm0 0" fill="#dde8ed"/><path d="m206.324219 388.773438-25.535157 40.960937-25.542968-40.960937" fill="#f74f4f"/><path d="m203.242188 506.546875c-3.382813-.703125-6.738282-1.472656-10.0625-2.320313-9.414063-2.371093-18.617188-5.265624-27.574219-8.652343-1.359375-.511719-2.707031-1.035157-4.054688-1.566407l19.238281-74.929687zm0 0" fill="#f74f4f"/><path d="m180.777344 393.394531-42.828125 23.800781-13.027344-60.601562 26.609375-15.675781" fill="#bfd5de"/><path d="m180.777344 393.394531 42.832031 23.800781 13.027344-60.601562-26.609375-15.675781" fill="#bfd5de"/><path d="m238.257812 438.375h13.582032l-28.835938 70.15625c-1.539062.25-3.085937.492188-4.628906.71875-8.550781-1.25-16.949219-2.933594-25.195312-5.023438l43.457031-152.859374 29.3125 14.785156zm0 0" fill="#2a2f4f"/><path d="m165.605469 495.574219c-14.253907-5.371094-27.886719-11.984375-40.792969-19.695313l-15.410156-37.503906h13.582031l-27.691406-72.222656 29.625-13.730469zm0 0" fill="#2a2f4f"/><path d="m214.726562 317.800781v41.65625c0 15.25-10.054687 28.140625-23.902343 32.421875-3.171875.984375-6.550781 1.515625-10.046875 1.515625-18.742188 0-33.9375-15.191406-33.9375-33.9375v-41.65625zm0 0" fill="#eab599"/><path d="m214.726562 356.820312v2.636719c0 15.25-10.054687 28.140625-23.902343 32.421875-12.496094-3.839844-21.894531-14.707031-23.628907-28 2.265626.136719 4.546876.207032 6.835938.207032 6.421875 0 12.71875-.507813 18.851562-1.515626 7.554688-1.214843 14.855469-3.160156 21.84375-5.75zm0 0" fill="#f6caae"/><path d="m87.675781 249.535156c0 15.710938-11.480469 28.742188-26.507812 31.160156-1.644531.265626-3.332031.402344-5.058594.402344-17.4375 0-31.566406-14.125-31.566406-31.5625s14.128906-31.566406 31.566406-31.566406c1.726563 0 3.414063.140625 5.058594.40625 15.027343 2.417969 26.507812 15.445312 26.507812 31.160156zm0 0" fill="#f6caae"/><path d="m87.675781 249.535156c0 15.710938-11.480469 28.742188-26.507812 31.160156-2.730469-9.929687-4.191407-20.378906-4.191407-31.160156 0-10.785156 1.457032-21.234375 4.191407-31.160156 15.027343 2.417969 26.507812 15.445312 26.507812 31.160156zm0 0" fill="#eab599"/><path d="m67.390625 249.535156c0 6.230469-5.050781 11.28125-11.28125 11.28125s-11.28125-5.050781-11.28125-11.28125c0-6.230468 5.050781-11.28125 11.28125-11.28125s11.28125 5.050782 11.28125 11.28125zm0 0" fill="#eab599"/><path d="m273.890625 249.535156c0 15.710938 11.480469 28.742188 26.511719 31.160156 1.640625.265626 3.332031.402344 5.054687.402344 17.4375 0 31.566407-14.125 31.566407-31.5625s-14.128907-31.566406-31.566407-31.566406c-1.722656 0-3.414062.140625-5.054687.40625-15.03125 2.417969-26.511719 15.445312-26.511719 31.160156zm0 0" fill="#f6caae"/><path d="m273.890625 249.535156c0 15.710938 11.480469 28.742188 26.511719 31.160156 2.730468-9.929687 4.1875-20.378906 4.1875-31.160156 0-10.785156-1.457032-21.234375-4.1875-31.160156-15.03125 2.417969-26.511719 15.445312-26.511719 31.160156zm0 0" fill="#eab599"/><path d="m298.222656 188.039062v44.722657c0 58.441406-42.691406 106.925781-98.59375 115.921875-.1875.03125-.386718.0625-.574218.09375-5.945313.949218-12.050782 1.421875-18.277344 1.421875-64.855469 0-117.4375-52.582031-117.4375-117.4375v-44.929688c.023437-13.585937 2.351562-26.636719 6.636718-38.765625 16.058594-45.707031 59.613282-78.472656 110.800782-78.472656h.011718c6.214844 0 12.328126.480469 18.285157 1.421875 56.171875 8.777344 99.148437 57.382813 99.148437 116.023437zm0 0" fill="#eab599"/><path d="m316.738281 249.535156c0 6.230469-5.050781 11.28125-11.28125 11.28125s-11.28125-5.050781-11.28125-11.28125c0-6.230468 5.050781-11.28125 11.28125-11.28125s11.28125 5.050782 11.28125 11.28125zm0 0" fill="#eab599"/><path d="m298.226562 188.039062v44.722657c0 58.441406-42.695312 106.925781-98.597656 115.921875-.1875.03125-.386718.0625-.574218.09375-56.171876-8.777344-99.140626-57.386719-99.140626-116.015625v-44.722657c0-58.640624 42.976563-107.246093 99.160157-116.023437 56.175781 8.777344 99.152343 57.382813 99.152343 116.023437zm0 0" fill="#f6caae"/><path d="m149.636719 207.953125h78.175781v42.582031h-78.175781zm0 0" fill="#eab599"/><path d="m102.058594 222.449219v.011719c.289062 17.863281 14.75 32.238281 32.617187 32.449218.785157.007813 1.570313.007813 2.351563-.003906 18.011718-.242188 32.460937-14.964844 32.460937-32.976562v.523437-10.449219l-.34375-12.96875c-.046875-1.765625-1.195312-3.308594-2.863281-3.890625-19.878906-6.925781-41.527344-6.878906-61.378906.128907-1.699219.597656-2.84375 2.195312-2.84375 3.996093v23.703125" fill="#dde8ed"/><path d="m107.28125 222.972656h-10.449219v-23.703125c0-4 2.546875-7.585937 6.332031-8.921875 20.890626-7.375 43.914063-7.421875 64.835938-.132812 3.703125 1.289062 6.261719 4.777344 6.363281 8.683594l.351563 13.105468v10.449219h-10.449219v-10.378906l-.328125-12.207031c-18.308594-6.222657-38.371094-6.183594-56.65625.109374zm0 0" fill="#3d4159"/><path d="m135.777344 260.140625c-.386719 0-.777344 0-1.164063-.007813-20.847656-.246093-37.441406-16.757812-37.777343-37.589843l5.222656-.09375h5.226562c.242188 15.0625 12.300782 27.058593 27.453125 27.234375.742188.011718 1.480469.007812 2.21875 0 15.058594-.203125 27.308594-12.652344 27.308594-27.753906h10.449219c0 20.785156-16.875 37.921874-37.617188 38.203124-.441406.003907-.878906.007813-1.320312.007813zm0 0" fill="#ffe152"/><path d="m194.53125 222.449219v.011719c.289062 17.863281 14.753906 32.238281 32.617188 32.449218.785156.007813 1.570312.007813 2.351562-.003906 18.011719-.242188 32.464844-14.964844 32.464844-32.976562v.523437-10.449219l-.347656-12.96875c-.046876-1.765625-1.195313-3.308594-2.863282-3.890625-19.878906-6.925781-41.527344-6.878906-61.375.128907-1.699218.597656-2.847656 2.195312-2.847656 3.996093v23.703125" fill="#dde8ed"/><path d="m199.757812 222.972656h-10.449218v-23.703125c0-4 2.542968-7.585937 6.328125-8.921875 20.890625-7.375 43.914062-7.421875 64.835937-.136718 3.703125 1.292968 6.261719 4.78125 6.363282 8.683593l.351562 13.109375v10.449219h-10.449219v-10.378906l-.328125-12.207031c-18.308594-6.222657-38.371094-6.183594-56.65625.109374v22.996094zm0 0" fill="#3d4159"/><path d="m228.25 260.140625c-.386719 0-.773438 0-1.164062-.007813-20.847657-.246093-37.441407-16.757812-37.777344-37.589843l5.222656-.09375h5.226562c.242188 15.0625 12.304688 27.058593 27.457032 27.234375.738281.011718 1.480468.007812 2.21875 0 15.054687-.203125 27.304687-12.652344 27.304687-27.753906h10.449219c0 20.785156-16.871094 37.921874-37.613281 38.203124-.445313.003907-.882813.007813-1.324219.007813zm0 0" fill="#ffe152"/><g fill="#3d4159"><path d="m169.140625 199.035156h25.390625v10.449219h-25.390625zm0 0"/><path d="m298.222656 189.042969v10.972656l-28.417968 8.964844-.085938.03125-6.257812 2.078125-3.300782-9.914063 7.980469-2.65625.085937-.03125zm0 0"/><path d="m103.707031 201.175781-3.292969 9.914063-7.167968-2.382813-29.90625-9.863281v-11.011719l31.484375 10.386719zm0 0"/><path d="m155.773438 220.695312c0 7.359376-5.964844 13.324219-13.324219 13.324219-7.355469 0-13.320313-5.964843-13.320313-13.324219 0-7.355468 5.964844-13.320312 13.320313-13.320312 7.359375 0 13.324219 5.964844 13.324219 13.320312zm0 0"/><path d="m232.441406 220.695312c0 7.359376-5.964844 13.324219-13.320312 13.324219-7.359375 0-13.324219-5.964843-13.324219-13.324219 0-7.355468 5.964844-13.320312 13.324219-13.320312 7.355468 0 13.320312 5.964844 13.320312 13.320312zm0 0"/></g><path d="m153.058594 218.347656c0 3.152344-2.558594 5.707032-5.710938 5.707032s-5.707031-2.554688-5.707031-5.707032 2.554687-5.710937 5.707031-5.710937 5.710938 2.558593 5.710938 5.710937zm0 0" fill="#fff"/><path d="m230.378906 218.347656c0 3.152344-2.554687 5.707032-5.707031 5.707032s-5.710937-2.554688-5.710937-5.707032 2.558593-5.710937 5.710937-5.710937 5.707031 2.558593 5.707031 5.710937zm0 0" fill="#fff"/><path d="m196.386719 256.332031h-29.117188c-3.175781 0-5.746093-2.574219-5.746093-5.746093 0-3.175782 2.570312-5.75 5.746093-5.75h29.117188c3.175781 0 5.746093 2.574218 5.746093 5.75 0 3.171874-2.570312 5.746093-5.746093 5.746093zm0 0" fill="#eab599"/><path d="m180.785156 290.601562c-9.835937 0-19.667968-2.464843-28.632812-7.390624-2.527344-1.390626-3.449219-4.566407-2.0625-7.097657 1.390625-2.527343 4.570312-3.449219 7.097656-2.0625 14.777344 8.125 32.417969 8.125 47.195312 0 2.527344-1.386719 5.703126-.464843 7.09375 2.0625 1.390626 2.53125.46875 5.707031-2.058593 7.097657-8.964844 4.925781-18.800781 7.390624-28.632813 7.390624zm0 0" fill="#eab599"/><path d="m298.226562 147.453125v45.8125h-21.859374v-35.875l-157.78125-29.320313-33.382813-6.207031v71.402344h-21.859375v-45.8125c0-52.222656 42.328125-94.554687 94.542969-94.554687h45.796875c1.242187 0 2.488281.023437 3.730468.085937 50.480469 1.941406 90.8125 43.488281 90.8125 94.46875zm0 0" fill="#2a2f4f"/><path d="m298.226562 147.453125v45.8125h-21.859374v-35.875l-157.78125-29.320313c8.695312-41.753906 44.921874-73.394531 88.828124-75.085937 50.480469 1.941406 90.8125 43.488281 90.8125 94.46875zm0 0" fill="#3d4159"/><path d="m503.085938 113.082031-27.621094-19.140625-3.160156-33.457031-47.082032 27.550781 2.074219 21.984375-69.765625 40.824219 10.554688 18.035156 69.765624-40.824218 18.148438 12.578124zm0 0" fill="#dd3033"/><path d="m503.085938 113.082031-27.621094-19.140625-3.160156-33.457031-47.082032 27.550781 2.074219 21.984375-69.765625 40.824219 10.554688 18.035156 69.765624-40.824218 18.148438 12.578124zm0 0" fill="#dd3033"/><path d="m474.578125 129.765625-18.578125 10.867187-17.617188-12.214843c-2.851562-6.863281-6.625-13.25-11.148437-19.015625v-.011719l-2.015625-21.355469 18.554688-10.859375c14.554687 14.242188 25.371093 32.320313 30.804687 52.589844zm0 0" fill="#d8d5d0"/><path d="m397.613281 67.1875 38.578125-38.574219 11.523438 31.566407-38.574219 38.574218zm0 0" fill="#e8c934"/><path d="m462.492188 74.957031-90.128907 90.128907c-4.082031 4.082031-10.699219 4.082031-14.777343 0-4.082032-4.078126-4.082032-10.695313 0-14.777344l90.128906-90.128906zm0 0" fill="#3d4159"/><path d="m448.097656 117.667969 38.574219-38.574219-31.566406-11.527344-38.578125 38.578125zm0 0" fill="#ffe152"/><path d="m278.992188 443.121094v31.542968c0 5.390626 3.328124 10.003907 8.046874 11.894532 1.476563.601562 3.085938.925781 4.777344.925781 7.078125 0 12.820313-5.742187 12.820313-12.820313v-31.542968c0-7.082032-5.742188-12.824219-12.820313-12.824219-1.691406 0-3.300781.328125-4.777344.921875-1.621093.648438-3.078124 1.617188-4.289062 2.835938-2.320312 2.320312-3.757812 5.527343-3.757812 9.066406zm0 0" fill="#eab599"/><path d="m278.992188 443.121094v55.816406c0 5.390625 3.328124-14.269531 8.046874-12.378906 4.714844-1.890625 8.042969-6.503906 8.042969-11.894532v-31.542968c0-5.390625-3.328125-10.007813-8.042969-11.902344-1.621093.648438-3.078124 1.617188-4.289062 2.832031-2.320312 2.324219-3.757812 5.53125-3.757812 9.070313zm0 0" fill="#f6caae"/><path d="m332.277344 485.113281v15.320313c-4.429688 1.390625-8.921875 2.652344-13.457032 3.792968-2.121093.542969-4.253906 1.042969-6.394531 1.523438-1.214843.273438-2.445312.542969-3.667969.796875-.367187.070313-.730468.15625-1.109374.230469-4.617188.960937-9.296876 1.773437-14.023438 2.472656-4.824219.710938-9.714844 1.289062-14.636719 1.726562v-25.863281c0-7.355469 2.988281-14.011719 7.804688-18.839843 2.519531-2.527344 5.546875-4.542969 8.914062-5.890626 3.070313-1.234374 6.414063-1.914062 9.925781-1.914062 14.710938 0 26.644532 11.933594 26.644532 26.644531zm0 0" fill="#eab599"/><path d="m312.425781 485.113281v20.636719c-1.214843.273438-2.445312.542969-3.667969.796875-.367187.070313-.730468.15625-1.109374.230469-4.617188.960937-9.296876 1.773437-14.023438 2.472656-4.824219.710938-9.714844 1.289062-14.636719 1.726562v-25.863281c0-7.355469 2.988281-14.011719 7.804688-18.839843 2.519531-2.527344 5.546875-4.542969 8.914062-5.890626 9.800781 3.9375 16.71875 13.53125 16.71875 24.730469zm0 0" fill="#f6caae"/></svg>